<svg id="Layer_2" xmlns="http://www.w3.org/2000/svg" viewBox="0 0 1904.92 1000">
    <defs>
        <style>
            .cls-1 {
                fill: #f1f1f1;
            }

            .cls-2 {
                fill: #e6cac8;
            }

            .cls-3 {
                fill: #efddd5;
            }

            .cls-4 {
                fill: #81667a;
            }

            .cls-5 {
                fill: #c2c2b5;
            }

            .cls-6 {
                fill: #b79fbc;
            }

            .cls-7 {
                fill: #adaea6;
            }

            .cls-8 {
                fill: #d8dbe1;
            }

            .cls-9 {
                fill: #d1cfc1;
            }

            .cls-10 {
                fill: #5d576b;
            }
        </style>
    </defs>
    <g id="base">
        <polygon class="cls-1" points="1904.92 413.92 780.44 976.16 0 585.94 1124.48 23.7 1904.92 413.92" />
        <polygon class="cls-9" points="171.88 671.88 117.74 644.81 881.66 262.85 935.79 289.92 171.88 671.88" />
        <polygon class="cls-9" points="972.72 271.46 918.58 244.39 1242.04 82.66 1296.18 109.73 972.72 271.46" />
        <polygon class="cls-7" points="800.84 161.73 918.58 244.39 800.84 185.52 800.84 161.73" />
        <polygon class="cls-5" points="918.58 244.39 1242.04 82.66 1124.3 0 800.84 161.73 918.58 244.39" />
        <polygon class="cls-5" points="117.74 644.81 881.66 262.85 763.92 180.19 0 562.15 117.74 644.81" />
        <polygon class="cls-4" points="780.44 976.16 780.44 1000 0 609.78 0 585.94 780.44 976.16" />
        <polygon class="cls-10" points="1904.92 413.92 1904.92 437.76 780.44 1000 780.44 976.16 1904.92 413.92" />
        <polygon class="cls-4" points="0 562.15 0 585.94 117.74 644.81 0 562.15" />
    </g>
    <polygon id="pathway" class="cls-8" points="780.4 944.43 336.91 722.69 965.75 408.25 1409.23 629.99 780.4 944.43" />
    <g id="grass">
        <polygon class="cls-9" points="1184.7 298.78 1216.4 282.93 1508.51 428.98 1476.81 444.83 1184.7 298.78" />
        <polygon class="cls-9" points="1873.17 398.04 1904.87 413.89 780.39 976.13 748.69 960.28 1873.17 398.04" />
        <polygon class="cls-9" points="780.39 944.43 748.69 960.28 305.19 738.53 336.89 722.68 780.39 944.43" />
        <polygon class="cls-9" points="274.9 691.68 243.2 707.53 171.88 671.88 203.58 656.03 274.9 691.68" />
        <polygon class="cls-9" points="1440.95 614.15 1409.25 630 1335.7 593.22 1367.4 577.37 1440.95 614.15" />
        <polygon class="cls-9" points="1071.01 429.18 1039.31 445.03 965.75 408.25 997.45 392.4 1071.01 429.18" />
        <polygon class="cls-9" points="678.68 625.34 646.98 641.19 573.42 604.42 605.12 588.57 678.68 625.34" />
        <polygon class="cls-9" points="467.65 731.85 414.03 705.04 558.77 632.67 612.39 659.48 467.65 731.85" />
    </g>
    <g id="building">
        <g id="bottom_floor">
            <polygon id="floor" class="cls-3"
                points="1055.13 807.08 994.73 837.28 927.69 803.76 981.69 776.77 873.91 722.88 639.37 840.15 563.17 802.05 563.18 802.05 512.7 776.81 512.69 776.81 490.18 765.55 512.69 754.29 487.77 741.83 448.07 761.69 441.59 758.45 481.3 738.59 481.29 738.59 626.01 666.23 650.93 678.7 827.32 590.5 773.11 563.4 773.12 563.39 766.63 560.15 923.02 481.96 1014.11 527.51 1066.5 501.31 1066.5 501.32 1082.55 493.3 1082.54 493.29 1089.02 490.05 1157.61 524.35 1216.08 553.59 1216.09 553.59 1246.84 568.97 1246.84 568.97 1255.05 573.08 1255.06 573.08 1285.81 588.45 1285.8 588.45 1364.5 627.8 1030.53 794.78 1055.13 807.08" />
            <g id="walls">
                <g>
                    <polygon class="cls-2"
                        points="733.56 707.09 727.08 710.33 697.79 695.69 704.27 692.45 733.56 707.09" />
                    <polygon class="cls-6"
                        points="606.53 741.33 600.05 744.56 566.1 727.59 572.58 724.35 606.53 741.33" />
                    <polygon class="cls-2"
                        points="795.43 738.03 788.95 741.27 759.66 726.62 766.14 723.38 795.43 738.03" />
                    <polygon class="cls-2"
                        points="727.01 772.23 720.53 775.47 691.24 760.83 697.72 757.59 727.01 772.23" />
                    <polygon class="cls-2"
                        points="665.15 741.3 658.67 744.54 629.38 729.9 635.86 726.66 665.15 741.3" />
                    <polygon class="cls-2"
                        points="869.57 605.14 863.1 608.38 833.81 593.74 840.28 590.5 869.57 605.14" />
                    <polygon class="cls-6"
                        points="1250.49 684.8 1244.02 688.04 1168.08 650.08 1174.56 646.84 1250.49 684.8" />
                    <polygon class="cls-6"
                        points="1040.73 560.26 1047.2 563.5 946.03 614.08 939.56 610.85 1040.73 560.26" />
                    <polygon class="cls-6"
                        points="916.75 628.73 910.27 631.97 863.1 608.38 869.57 605.14 916.75 628.73" />
                    <polygon class="cls-6" points="840.28 590.5 833.8 593.74 773.11 563.4 779.6 560.15 840.28 590.5" />
                    <polygon class="cls-6"
                        points="923.02 488.45 773.12 563.39 766.63 560.15 916.53 485.2 923.02 488.45" />
                    <polygon class="cls-6"
                        points="1066.64 553.77 1060.16 557.02 916.53 485.2 923.02 481.96 1066.64 553.77" />
                    <polygon class="cls-6"
                        points="797.72 678.3 784.37 678.11 767.36 669.6 766.97 662.93 797.72 678.3" />
                    <polygon class="cls-6"
                        points="833.81 593.74 650.93 685.18 626.01 672.72 576.99 697.22 570.51 693.99 626.01 666.24 650.93 678.7 827.33 590.5 833.81 593.74" />
                    <polygon class="cls-6"
                        points="766.14 723.38 759.66 726.62 727.08 710.33 733.56 707.09 766.14 723.38" />
                    <polygon class="cls-6"
                        points="697.72 757.59 691.24 760.83 658.67 744.54 665.15 741.3 697.72 757.59" />
                    <polygon class="cls-6"
                        points="819.52 750.07 813.04 753.31 788.95 741.27 795.44 738.03 819.52 750.07" />
                    <polygon class="cls-6"
                        points="751.1 784.28 744.63 787.52 720.54 775.47 727.01 772.24 751.1 784.28" />
                    <polygon class="cls-6"
                        points="697.72 757.59 691.24 754.35 753.18 723.38 759.66 726.62 697.72 757.59" />
                    <polygon class="cls-6"
                        points="733.49 775.47 727.01 772.23 788.95 741.27 795.43 744.51 733.49 775.47" />
                    <polygon class="cls-6"
                        points="873.91 722.88 645.85 836.91 639.38 833.67 867.44 719.64 873.91 722.88" />
                    <polygon class="cls-6"
                        points="671.63 744.54 665.15 741.3 727.08 710.33 733.56 713.57 671.63 744.54" />
                    <polygon class="cls-6"
                        points="773.42 666.15 766.94 662.91 796.57 641.64 803.05 644.88 773.42 666.15" />
                    <polygon class="cls-6" points="832.34 630.24 825.86 627 863.1 608.38 869.57 611.62 832.34 630.24" />
                    <polygon class="cls-2"
                        points="946.03 614.08 916.75 628.73 910.27 625.49 939.56 610.85 946.03 614.08" />
                    <polygon class="cls-2" points="880.3 666.3 873.82 669.54 844.53 654.9 851.01 651.66 880.3 666.3" />
                    <polygon class="cls-2"
                        points="803.05 644.88 796.58 641.64 825.86 627 832.34 630.24 803.05 644.88" />
                    <polygon class="cls-2"
                        points="724.72 648.28 670.33 675.48 663.85 672.24 718.24 645.04 724.72 648.28" />
                    <polygon class="cls-6"
                        points="584.01 752.58 546.64 771.27 540.17 768.03 577.53 749.34 584.01 752.58" />
                    <polygon class="cls-6"
                        points="629.38 729.9 600.05 744.56 593.57 741.32 622.89 726.66 629.38 729.9" />
                    <polygon class="cls-6"
                        points="601.91 716.17 519.18 757.53 512.7 754.29 519.18 751.05 595.43 712.92 601.91 716.17" />
                    <rect class="cls-6" x="626.14" y="724.65" width="0" height="7.25"
                        transform="translate(-259.59 356.9) rotate(-26.57)" />
                    <polygon class="cls-6"
                        points="546.65 771.27 530.61 779.29 524.13 776.05 540.17 768.03 546.65 771.27" />
                    <polygon class="cls-6"
                        points="519.18 773.57 512.7 776.81 490.18 765.55 496.66 762.31 519.18 773.57" />
                    <polygon class="cls-6"
                        points="546.65 764.79 540.17 768.03 512.7 754.29 519.18 751.05 546.65 764.79" />
                    <polygon class="cls-6"
                        points="645.85 836.91 639.37 840.14 592.47 816.69 598.95 813.46 645.85 836.91" />
                    <polygon class="cls-6"
                        points="569.65 798.81 563.18 802.05 512.7 776.81 519.18 773.57 569.65 798.81" />
                    <polygon class="cls-2"
                        points="598.95 813.46 592.47 816.7 563.18 802.05 569.65 798.81 598.95 813.46" />
                    <polygon class="cls-6"
                        points="519.18 757.53 496.65 768.79 490.18 765.55 512.7 754.29 519.18 757.53" />
                    <polygon class="cls-6"
                        points="465.26 753.09 448.07 761.69 441.59 758.45 458.79 749.85 465.26 753.09" />
                    <polygon class="cls-6"
                        points="487.78 741.83 465.26 753.09 458.78 749.85 481.3 738.59 487.78 741.83" />
                    <polygon class="cls-6"
                        points="525.65 754.29 519.18 757.53 481.3 738.59 487.78 735.35 525.65 754.29" />
                    <polygon class="cls-6"
                        points="576.99 697.23 494.26 738.59 487.78 735.35 570.51 693.98 576.99 697.23" />
                    <polygon class="cls-2"
                        points="570.51 700.46 576.99 697.22 601.91 709.68 595.43 712.92 570.51 700.46" />
                    <polygon class="cls-6"
                        points="704.28 692.45 629.38 729.9 595.43 712.93 601.91 709.69 629.37 723.42 691.31 692.45 663.85 678.72 670.33 675.48 704.28 692.45" />
                    <polygon class="cls-2"
                        points="546.65 771.27 530.61 779.29 524.13 776.05 540.17 768.03 546.65 771.27" />
                    <polygon class="cls-2"
                        points="519.18 773.57 512.7 776.81 496.66 768.79 503.13 765.55 519.18 773.57" />
                    <polygon class="cls-6"
                        points="1358.02 631.04 1030.6 794.75 1024.13 791.51 1140.04 733.55 1194.58 706.29 1351.55 627.8 1358.02 631.04" />
                    <polygon class="cls-6"
                        points="1089.4 722.91 988.02 773.6 981.54 770.36 1082.92 719.67 1089.4 722.91" />
                    <polygon class="cls-6"
                        points="1156.46 689.38 1095.88 719.67 1089.4 716.43 1149.98 686.14 1156.46 689.38" />
                    <polygon class="cls-6"
                        points="1194.81 706.4 1158.61 688.3 1165.09 685.06 1201.29 703.16 1194.81 706.4" />
                    <polygon class="cls-6"
                        points="1149.98 686.14 1195.1 663.58 1201.58 666.82 1156.46 689.38 1149.98 686.14" />
                    <polygon class="cls-6"
                        points="1258.94 611.13 1099.69 690.75 1093.21 687.51 1252.46 607.89 1258.94 611.13" />
                    <polygon class="cls-6"
                        points="1315.58 609.82 1269.91 632.65 1263.43 629.42 1309.1 606.58 1315.58 609.82" />
                    <polygon class="cls-6"
                        points="1302.38 655.37 1236.42 622.39 1242.9 619.15 1308.86 652.13 1302.38 655.37" />
                    <polygon class="cls-6"
                        points="1018.47 604.88 979.52 624.35 973.05 621.11 1011.99 601.64 1018.47 604.88" />
                    <polygon class="cls-6"
                        points="1059.51 631.88 1027.05 648.11 1020.57 644.87 1053.04 628.64 1059.51 631.88" />
                    <polygon class="cls-6"
                        points="1209.6 556.83 1167.37 577.95 1160.89 574.71 1203.12 553.59 1209.6 556.83" />
                    <polygon class="cls-6"
                        points="1180.36 542.21 1105.46 579.66 1098.98 576.42 1173.89 538.97 1180.36 542.21" />
                    <polygon class="cls-6"
                        points="1138.48 664.88 1132 668.12 1011.99 608.12 1018.47 604.88 1138.48 664.88" />
                    <polygon class="cls-6"
                        points="1065.3 628.98 1058.83 625.74 1134.7 587.81 1141.18 591.04 1065.3 628.98" />
                    <polygon class="cls-6"
                        points="1168.03 650.11 1161.55 653.34 1089.06 617.1 1095.54 613.86 1168.03 650.11" />
                    <polygon class="cls-6"
                        points="1118.06 625.12 1088.55 639.88 1082.07 636.64 1111.58 621.88 1118.06 625.12" />
                    <polygon class="cls-6"
                        points="988.02 773.6 981.69 776.77 975.21 773.53 981.55 770.36 988.02 773.6" />
                    <polygon class="cls-6"
                        points="1364.5 627.8 1358.03 631.04 1082.54 493.29 1089.02 490.05 1157.61 524.35 1216.08 553.59 1364.5 627.8" />
                    <polygon class="cls-6"
                        points="1138.32 740.89 1131.84 744.13 1082.92 719.67 1089.4 716.43 1138.32 740.89" />
                    <polygon class="cls-6"
                        points="1004.53 636.85 998.05 640.09 946.03 614.08 952.51 610.84 1004.53 636.85" />
                    <polygon class="cls-6"
                        points="1133.02 701.1 1126.55 704.34 1014.09 648.11 1020.57 644.87 1133.02 701.1" />
                    <polygon class="cls-6"
                        points="1072.98 504.56 1020.59 530.75 1014.11 527.51 1066.5 501.31 1072.98 504.56" />
                    <polygon class="cls-6"
                        points="1020.59 530.75 1020.44 530.83 1013.96 527.59 1014.11 527.51 1020.59 530.75" />
                    <polygon class="cls-2"
                        points="1089.02 496.53 1072.98 504.55 1066.5 501.32 1082.55 493.3 1089.02 496.53" />
                    <rect class="cls-2" x="997.6" y="577.34" width="17.94" height="0"
                        transform="translate(-151.93 511.1) rotate(-26.57)" />
                    <polygon class="cls-2"
                        points="1125.86 704.68 1096.57 719.33 1090.09 716.09 1119.38 701.44 1125.86 704.68" />
                    <polygon class="cls-2"
                        points="1088.71 723.25 1059.43 737.9 1052.95 734.66 1082.24 720.01 1088.71 723.25" />
                    <polygon class="cls-2"
                        points="1194.58 706.28 1178.54 698.26 1185.01 695.02 1201.05 703.05 1194.58 706.28" />
                    <polygon class="cls-6"
                        points="1056.39 775.61 1020.19 757.51 1026.67 754.27 1062.87 772.37 1056.39 775.61" />
                    <path class="cls-6"
                        d="m1030.53,794.78l-.08.04-197.25-98.63,53.44-26.72-6.35-3.18-59.76,29.88,161.16,80.58-54,27,67.03,33.52,60.4-30.2-24.59-12.3Zm-35.81,36.02l-54.08-27.04,47.52-23.76,35.96,17.98-.08.04,18.11,9.06-47.44,23.72Z" />
                    <polygon class="cls-2"
                        points="1056.15 775.49 1040.11 767.47 1046.59 764.24 1062.63 772.26 1056.15 775.49" />
                    <polygon class="cls-2"
                        points="1244.02 688.04 1227.97 696.07 1221.5 692.83 1237.54 684.81 1244.02 688.04" />
                    <polygon class="cls-2"
                        points="1179.06 671.61 1195.1 663.59 1201.57 666.82 1185.53 674.84 1179.06 671.61" />
                    <polygon class="cls-2" points="957 613.09 973.04 621.11 966.57 624.35 950.53 616.33 957 613.09" />
                    <polygon class="cls-2"
                        points="1059.51 631.88 1043.47 639.9 1037 636.66 1053.04 628.64 1059.51 631.88" />
                    <polygon class="cls-2"
                        points="1134.69 594.29 1118.65 602.31 1112.17 599.07 1128.22 591.05 1134.69 594.29" />
                    <polygon class="cls-2"
                        points="1075.55 639.9 1059.51 631.88 1065.99 628.64 1082.03 636.66 1075.55 639.9" />
                    <polygon class="cls-2"
                        points="1105.11 625.12 1089.06 617.1 1095.54 613.86 1111.58 621.88 1105.11 625.12" />
                    <polygon class="cls-2"
                        points="1082.07 636.64 1098.5 628.42 1104.98 631.66 1088.54 639.88 1082.07 636.64" />
                    <polygon class="cls-6"
                        points="1163.97 602.41 1134.45 617.17 1127.98 613.93 1157.49 599.17 1163.97 602.41" />
                    <polygon class="cls-2"
                        points="1127.98 613.93 1144.41 605.71 1150.89 608.95 1134.46 617.17 1127.98 613.93" />
                    <polygon class="cls-2"
                        points="1105.46 573.18 1121.5 565.16 1127.98 568.4 1111.94 576.42 1105.46 573.18" />
                    <polygon class="cls-2"
                        points="1060.02 557.09 1043.98 565.11 1037.5 561.88 1053.54 553.85 1060.02 557.09" />
                    <polygon class="cls-2"
                        points="1181.04 650.08 1197.08 658.1 1190.61 661.34 1174.56 653.32 1181.04 650.08" />
                    <polygon class="cls-2"
                        points="1242.9 619.15 1258.94 627.17 1252.47 630.41 1236.42 622.39 1242.9 619.15" />
                    <polygon class="cls-2"
                        points="1301.99 616.61 1285.95 624.63 1279.48 621.4 1295.52 613.38 1301.99 616.61" />
                    <polygon class="cls-2"
                        points="1046.5 786.8 1030.46 794.82 1023.99 791.58 1040.02 783.56 1046.5 786.8" />
                    <polygon class="cls-6"
                        points="797.67 678.28 791.19 675.04 903.79 628.73 910.27 631.97 797.67 678.28" />
                    <polygon class="cls-2"
                        points="981.69 770.29 975.21 773.53 916.63 744.24 923.11 741 981.69 770.29" />
                    <polygon class="cls-6"
                        points="1128.22 591.05 1060.16 557.03 1066.65 553.78 1134.71 587.81 1128.22 591.05" />
                    <polygon class="cls-6"
                        points="1207.18 630.53 1157.45 605.67 1163.93 602.43 1213.67 627.29 1207.18 630.53" />
                    <polygon class="cls-2"
                        points="1285.81 588.45 1279.33 591.69 1248.58 576.31 1255.06 573.08 1285.81 588.45" />
                    <polygon class="cls-2"
                        points="1246.84 568.97 1240.36 572.21 1209.61 556.83 1216.09 553.59 1246.84 568.97" />
                    <polygon class="cls-2"
                        points="1066.65 553.78 1082.69 561.81 1076.21 565.04 1060.17 557.02 1066.65 553.78" />
                    <polygon class="cls-2"
                        points="1157.61 524.35 1151.13 527.59 1135.09 519.57 1141.56 516.33 1157.61 524.35" />
                    <polygon class="cls-2"
                        points="1190.24 615.58 1206.68 623.8 1200.2 627.04 1183.77 618.82 1190.24 615.58" />
                    <polygon class="cls-2" points="982.4 824.64 975.93 827.88 946.64 813.24 953.11 810 982.4 824.64" />
                    <polygon class="cls-2"
                        points="588.62 738.85 572.58 730.83 579.06 727.59 595.1 735.61 588.62 738.85" />
                    <polygon class="cls-2"
                        points="572.58 724.35 588.62 716.33 595.1 719.57 579.05 727.59 572.58 724.35" />
                </g>
            </g>
        </g>
        <g id="top_floor">
            <g id="floor-2">
                <polygon class="cls-3"
                    points="1115.36 537.43 1143.08 523.57 1203.08 553.57 1175.36 567.43 1115.36 537.43" />
                <polygon class="cls-3"
                    points="1351.54 627.8 1273.64 666.75 1156.55 608.19 1131.71 595.78 1209.61 556.83 1351.54 627.8" />
                <polygon class="cls-3"
                    points="1136.61 520.33 1058.7 559.28 1019.45 539.64 1011.12 535.48 1089.01 496.53 1136.61 520.33" />
            </g>
            <g id="walls-2">
                <path class="cls-3" d="m1122.97,507.03h0s241.54,120.77,241.54,120.77h0s-241.54-120.77-241.54-120.77Z" />
                <polygon class="cls-6"
                    points="1364.5 627.8 1358.02 631.04 1082.53 493.3 1089.02 490.05 1122.97 507.03 1358.02 624.56 1364.5 627.8" />
                <polygon class="cls-6"
                    points="1358.02 631.04 1280.12 669.99 1273.64 666.75 1351.54 627.8 1358.02 631.04" />
                <polygon class="cls-6"
                    points="1089.02 496.54 1011.12 535.49 1004.64 532.25 1082.54 493.3 1089.02 496.54" />
                <polygon class="cls-6"
                    points="1209.55 556.81 1131.66 595.75 1125.18 592.52 1203.08 553.57 1209.55 556.81" />
                <polygon class="cls-6"
                    points="1143.08 523.57 1065.19 562.52 1058.71 559.28 1136.6 520.33 1143.08 523.57" />
                <polygon class="cls-2"
                    points="1108.88 540.67 1092.84 548.69 1086.36 545.45 1102.41 537.43 1108.88 540.67" />
                <polygon class="cls-2"
                    points="1175.36 573.91 1159.32 581.93 1152.84 578.69 1168.88 570.67 1175.36 573.91" />
                <polygon class="cls-6"
                    points="1108.88 540.67 1115.36 537.43 1175.36 567.43 1168.88 570.67 1108.88 540.67" />
                <polygon class="cls-2"
                    points="1130.08 551.26 1136.55 548.03 1152.59 556.05 1146.12 559.29 1130.08 551.26" />
                <polygon class="cls-6"
                    points="1280.12 669.99 1273.64 673.23 1239.69 656.25 1239.69 656.25 998.16 535.48 1004.64 532.24 1147.43 603.64 1273.64 666.75 1280.12 669.99" />
            </g>
        </g>
    </g>
</svg>